<svg xmlns="http://www.w3.org/2000/svg" width="1830.976" height="1585.749" viewBox="0 0 1830.976 1585.749">
  <g id="Group_1563" data-name="Group 1563" transform="translate(-175.071 -74.85)" opacity="0.2">
    <path id="Path_948" data-name="Path 948" d="M549.262,74.85V662.51H210.02Z" transform="translate(541.273 0)" fill="#b6b6b6"/>
    <path id="Path_949" data-name="Path 949" d="M549.262,110.493V698.316L210.02,110.493Z" transform="translate(541.273 552.017)" fill="#646a71"/>
    <path id="Path_950" data-name="Path 950" d="M569.839,110.493,230.6,698.316V110.493Z" transform="translate(859.938 552.017)" fill="#b6b6b6"/>
    <path id="Path_951" data-name="Path 951" d="M569.839,662.51H230.6V74.85Z" transform="translate(859.938 0)" fill="#eaeaea"/>
    <path id="Path_952" data-name="Path 952" d="M431.776,519.459,202.833,122.94V651.686L660.558,915.814Z" transform="translate(429.961 744.784)" fill="#eaeaea"/>
    <path id="Path_953" data-name="Path 953" d="M632.794,155.01,175.071,419.138h915.447Z" transform="translate(0 1241.461)" fill="#646a71"/>
    <path id="Path_954" data-name="Path 954" d="M403.851,519.459,175.071,915.814,632.794,651.686V122.94Z" transform="translate(0 744.784)" fill="#b6b6b6"/>
    <path id="Path_955" data-name="Path 955" d="M487.306,519.459,258.363,122.94V651.686L716.087,915.814Z" transform="translate(1289.959 744.784)" fill="#eaeaea"/>
    <path id="Path_956" data-name="Path 956" d="M688.323,155.01,230.6,419.138h915.448Z" transform="translate(859.999 1241.461)" fill="#646a71"/>
    <path id="Path_957" data-name="Path 957" d="M459.38,519.459,230.6,915.814,688.323,651.686V122.94Z" transform="translate(859.999 744.784)" fill="#b6b6b6"/>
  </g>
</svg>
