<svg xmlns="http://www.w3.org/2000/svg" width="1684.202" height="1458.633" viewBox="0 0 1684.202 1458.633">
  <g id="Group_1526" data-name="Group 1526" transform="translate(-175.071 -74.85)">
    <path id="Path_948" data-name="Path 948" d="M522.068,74.85V615.4H210.021Z" transform="translate(495.082 0)" fill="#be1e2d"/>
    <path id="Path_949" data-name="Path 949" d="M522.068,110.493V651.2l-312.047-540.7Z" transform="translate(495.082 504.909)" fill="#910d23"/>
    <path id="Path_950" data-name="Path 950" d="M542.644,110.493,230.6,651.2v-540.7Z" transform="translate(786.554 504.909)" fill="#be1e2d"/>
    <path id="Path_951" data-name="Path 951" d="M542.644,615.4H230.6V74.85Z" transform="translate(786.554 0)" fill="#ec1c24"/>
    <path id="Path_952" data-name="Path 952" d="M413.424,487.673,202.833,122.94V609.3L623.866,852.257Z" transform="translate(393.269 681.226)" fill="#ec1c24"/>
    <path id="Path_953" data-name="Path 953" d="M596.1,155.01,175.071,397.965h842.064Z" transform="translate(0 1135.517)" fill="#910d23"/>
    <path id="Path_954" data-name="Path 954" d="M385.511,487.673,175.071,852.257,596.1,609.3V122.94Z" transform="translate(0 681.226)" fill="#be1e2d"/>
    <path id="Path_955" data-name="Path 955" d="M468.954,487.673,258.363,122.94V609.3L679.4,852.257Z" transform="translate(1179.877 681.226)" fill="#ec1c24"/>
    <path id="Path_956" data-name="Path 956" d="M651.631,155.01,230.6,397.965h842.064Z" transform="translate(786.609 1135.517)" fill="#910d23"/>
    <path id="Path_957" data-name="Path 957" d="M441.041,487.673,230.6,852.257,651.631,609.3V122.94Z" transform="translate(786.609 681.226)" fill="#be1e2d"/>
  </g>
</svg>
