<svg xmlns="http://www.w3.org/2000/svg" width="33.653" height="19.682" viewBox="0 0 33.653 19.682">
  <path id="Path_930" data-name="Path 930" d="M531.93,441.77c-.013-.018-.032-.037-.046-.057-1.5-1.842-4.027-2.781-6.234-3.423a34.661,34.661,0,0,0-8.212-1.272,39.409,39.409,0,0,0-8.333.505,20.57,20.57,0,0,0-7.361,2.5,5.923,5.923,0,0,0-2.408,2.479,3.046,3.046,0,0,0-.23,1.548,10.388,10.388,0,0,0,.332,1.932c.673,1.987,2.862,3.69,4.676,4.47a26.291,26.291,0,0,0,7.238,1.884v4.325l9.226-7.44-9.226-7.431v5.27c-.013,0-.028,0-.037,0a18.785,18.785,0,0,1-3.792-1.029,7.225,7.225,0,0,1-2.9-1.855c-.2-.244-.462-.529-.355-.847a1.989,1.989,0,0,1,.173-.4,3.93,3.93,0,0,1,1.112-1.229,13.824,13.824,0,0,1,6.44-2.255,26.775,26.775,0,0,1,7.8.042,17.932,17.932,0,0,1,4.854,1.366,6.819,6.819,0,0,1,2.432,1.753c.243.318.654.867.43,1.26a3.959,3.959,0,0,1-1.141,1.191,9.6,9.6,0,0,1-2.38,1.221s-1.357.545-1.409,3.194c-.044,2.235,1.409,2.327,1.409,2.327a14.068,14.068,0,0,0,5.553-2.536c3.2-2.442,3.1-4.529,3.168-4.96a3.265,3.265,0,0,0-.7-2.421c-.028-.038-.055-.076-.084-.113Z" transform="translate(-499.089 -436.981)" fill="#ec1c24"/>
</svg>
